<svg width="28" height="35" viewBox="0 0 28 35" fill="none" xmlns="http://www.w3.org/2000/svg">
<path d="M26 34.5H14H2C1.44772 34.5 1 34.0523 1 33.5V30.4142C1 30.149 1.10536 29.8946 1.29289 29.7071L9.70711 21.2929C9.89464 21.1054 10 20.851 10 20.5858V18.5C10 17.9477 9.55229 17.5 9 17.5H7.5C6.94772 17.5 6.5 17.0523 6.5 16.5V14.5C6.5 13.9477 6.94772 13.5 7.5 13.5H8.71281C9.14756 13.5 9.5 13.1476 9.5 12.7128C9.5 12.5734 9.46645 12.4429 9.39966 12.3205C8.58364 10.8258 3.33233 0.5 14 0.5C24.6677 0.5 19.4164 10.8258 18.6003 12.3205C18.5336 12.4429 18.5 12.5734 18.5 12.7128C18.5 13.1476 18.8524 13.5 19.2872 13.5H20.5C21.0523 13.5 21.5 13.9477 21.5 14.5V16.5C21.5 17.0523 21.0523 17.5 20.5 17.5H19C18.4477 17.5 18 17.9477 18 18.5V20.5858C18 20.851 18.1054 21.1054 18.2929 21.2929L26.7071 29.7071C26.8946 29.8946 27 30.149 27 30.4142V33.5C27 34.0523 26.5523 34.5 26 34.5Z" fill="#7D7C7A" stroke="#7D7C7A"/>
</svg>
