<svg width="47" height="38" viewBox="0 0 47 38" fill="none" xmlns="http://www.w3.org/2000/svg">
<path d="M19.948 36.2348L11.6473 30.1979C10.6123 29.4452 10 28.2427 10 26.963V21C10 19.7409 10.5813 18.5354 11.6513 17.8719C18.9018 13.376 28.0982 13.376 35.3487 17.8719C36.4187 18.5354 37 19.7409 37 21V26.963C37 28.2427 36.3877 29.4452 35.3527 30.1979L27.052 36.2348C26.3683 36.732 25.5446 36.9999 24.6993 36.9999H22.3007C21.4554 36.9999 20.6317 36.732 19.948 36.2348Z" fill="#7D7C7A"/>
<path d="M38.8376 17.872C30.8717 10.7093 16.1283 10.7093 8.16239 17.872C7.72779 18.2628 7.5 18.8283 7.5 19.4128C7.5 19.8641 6.98718 20.1239 6.62328 19.8571L1.17764 15.8636C0.610771 15.4479 0.638429 14.5925 1.23097 14.2143L21.3479 1.37371C22.6603 0.535959 24.3397 0.535959 25.6521 1.37371L45.769 14.2143C46.3616 14.5925 46.3892 15.4479 45.8224 15.8636L43.5 17.5667V32.5C45 32.5 45.7617 36.5 42.5 36.5C39.2383 36.5 40 32.5 41.5455 32.5V19L40.3767 19.8571C40.0128 20.1239 39.5 19.8641 39.5 19.4128C39.5 18.8283 39.2722 18.2628 38.8376 17.872Z" fill="#7D7C7A"/>
<path d="M41.5455 19L40.3767 19.8571C40.0128 20.1239 39.5 19.8641 39.5 19.4128V19.4128C39.5 18.8283 39.2722 18.2628 38.8376 17.872C30.8717 10.7093 16.1283 10.7093 8.16239 17.872C7.72779 18.2628 7.5 18.8283 7.5 19.4128V19.4128C7.5 19.8641 6.98718 20.1239 6.62328 19.8571L1.17764 15.8636C0.610771 15.4479 0.638429 14.5925 1.23097 14.2143L21.3479 1.37371C22.6603 0.535959 24.3397 0.535959 25.6521 1.37371L45.769 14.2143C46.3616 14.5925 46.3892 15.4479 45.8224 15.8636L43.5 17.5667M41.5455 19V32.5C40 32.5 39.2383 36.5 42.5 36.5C45.7617 36.5 45 32.5 43.5 32.5V17.5667M41.5455 19L43.5 17.5667M11.6513 17.8719C18.9018 13.376 28.0982 13.376 35.3487 17.8719C36.4187 18.5354 37 19.7409 37 21V26.963C37 28.2427 36.3877 29.4452 35.3527 30.1979L27.052 36.2348C26.3683 36.732 25.5446 36.9999 24.6993 36.9999H22.3007C21.4554 36.9999 20.6317 36.732 19.948 36.2348L11.6473 30.1979C10.6123 29.4452 10 28.2427 10 26.963V21C10 19.7409 10.5813 18.5354 11.6513 17.8719Z" stroke="#7D7C7A"/>
</svg>
