<svg width="37" height="34" viewBox="0 0 37 34" fill="none" xmlns="http://www.w3.org/2000/svg">
<path d="M2.5 6.5H34.5C35.6046 6.5 36.5 5.60457 36.5 4.5V2.5C36.5 1.39543 35.6046 0.5 34.5 0.5H2.5C1.39543 0.5 0.5 1.39543 0.5 2.5V4.5C0.5 5.60457 1.39543 6.5 2.5 6.5Z" fill="#7D7C7A"/>
<path d="M36.5 17.5V15.5C36.5 14.3954 35.6046 13.5 34.5 13.5H2.5C1.39543 13.5 0.5 14.3954 0.5 15.5V17.5C0.5 18.6046 1.39543 19.5 2.5 19.5H34.5C35.6046 19.5 36.5 18.6046 36.5 17.5Z" fill="#7D7C7A"/>
<path d="M36.5 31.5V29.5C36.5 28.3954 35.6046 27.5 34.5 27.5H2.5C1.39543 27.5 0.5 28.3954 0.5 29.5V31.5C0.5 32.6046 1.39543 33.5 2.5 33.5H34.5C35.6046 33.5 36.5 32.6046 36.5 31.5Z" fill="#7D7C7A"/>
<path d="M2.5 6.5H34.5C35.6046 6.5 36.5 5.60457 36.5 4.5V2.5C36.5 1.39543 35.6046 0.5 34.5 0.5H2.5C1.39543 0.5 0.5 1.39543 0.5 2.5V4.5C0.5 5.60457 1.39543 6.5 2.5 6.5Z" stroke="#7D7C7A"/>
<path d="M36.5 17.5V15.5C36.5 14.3954 35.6046 13.5 34.5 13.5H2.5C1.39543 13.5 0.5 14.3954 0.5 15.5V17.5C0.5 18.6046 1.39543 19.5 2.5 19.5H34.5C35.6046 19.5 36.5 18.6046 36.5 17.5Z" stroke="#7D7C7A"/>
<path d="M36.5 31.5V29.5C36.5 28.3954 35.6046 27.5 34.5 27.5H2.5C1.39543 27.5 0.5 28.3954 0.5 29.5V31.5C0.5 32.6046 1.39543 33.5 2.5 33.5H34.5C35.6046 33.5 36.5 32.6046 36.5 31.5Z" stroke="#7D7C7A"/>
</svg>
