<svg width="39" height="39" viewBox="0 0 39 39" fill="none" xmlns="http://www.w3.org/2000/svg">
<path d="M15.5497 36.5497L2.53553 23.5355C0.582912 21.5829 0.582912 18.4171 2.53553 16.4645L6.08579 12.9142C6.351 12.649 6.71071 12.5 7.08579 12.5H7.7C8.14183 12.5 8.5 12.8582 8.5 13.3V15C8.5 18.0376 10.9624 20.5 14 20.5C17.0376 20.5 19.5 18.0376 19.5 15C19.5 11.9624 17.0376 9.5 14 9.5H12.3C11.8582 9.5 11.5 9.14183 11.5 8.7V7.37868C11.5 6.81607 11.7235 6.2765 12.1213 5.87868L15.4645 2.53553C17.4171 0.582912 20.5829 0.582909 22.5355 2.53553L27.2929 7.29289C27.6834 7.68342 28.3166 7.68342 28.7071 7.29289L29.1216 6.87843C29.358 6.64201 29.4554 6.3024 29.4132 5.97072C28.8846 1.81307 32.2936 -0.401349 35.7809 1.25717C36.6366 1.66415 37.3359 2.36341 37.7428 3.21913C39.4013 6.7064 37.1869 10.1154 33.0293 9.58679C32.6976 9.54461 32.358 9.64201 32.1216 9.87843L31.7071 10.2929C31.3166 10.6834 31.3166 11.3166 31.7071 11.7071L36.3772 16.3772C38.3636 18.3636 38.3241 21.5961 36.2899 23.5334L22.5335 36.6348C20.5682 38.5065 17.4687 38.4687 15.5497 36.5497Z" fill="#7D7C7A" stroke="#7D7C7A"/>
</svg>
