<svg width="50" height="41" viewBox="0 0 50 41" fill="none" xmlns="http://www.w3.org/2000/svg">
<path fill-rule="evenodd" clip-rule="evenodd" d="M16.5 0C14.1937 0 12.4718 0.721557 11.1827 2.0106C9.98332 3.20996 9.28186 4.79049 8.71354 6.20403L1.25566 25.8057C1.16715 26.0289 1.08357 26.254 1.00498 26.4809C0.977893 26.554 0.956226 26.6278 0.93976 26.7017C0.625064 27.738 0.465684 28.8141 0.466668 29.8958C0.466668 36.0285 5.51088 41 11.7333 41C17.9558 41 23 36.0285 23 29.8958L22.9667 26H24.5H27V29.8958C27 36.0285 32.0442 41 38.2667 41C44.4891 41 49.5333 36.0285 49.5333 29.8958C49.5333 28.7855 49.368 27.7133 49.0603 26.7018C49.025 26.5859 48.7445 25.8058 48.7445 25.8058L41.3554 6.38255L41.2865 6.20403C40.7182 4.79049 40.0168 3.20996 38.8173 2.0106C37.5282 0.721557 35.8063 0 33.5 0C31.5028 0 29.8238 0.772914 28.6672 2.09346C27.5355 3.38538 27 5.08635 27 6.83333V10.5499H23V6.83333C23 5.08635 22.4645 3.38538 21.3329 2.09346C20.1762 0.772914 18.4972 0 16.5 0ZM4.8 29.8958C4.8 26.1219 7.90418 23.0625 11.7333 23.0625C15.5625 23.0625 18.6667 26.1219 18.6667 29.8958C18.6667 33.6698 15.5625 36.7292 11.7333 36.7292C7.90418 36.7292 4.8 33.6698 4.8 29.8958ZM31.3333 29.8958C31.3333 26.1219 34.4375 23.0625 38.2667 23.0625C42.0958 23.0625 45.2 26.1219 45.2 29.8958C45.2 33.6698 42.0958 36.7292 38.2667 36.7292C34.4375 36.7292 31.3333 33.6698 31.3333 29.8958Z" fill="#7D7C7A"/>
</svg>
